<?xml version="1.0" encoding="iso-8859-1"?>
<!-- Generator: Adobe Illustrator 18.1.1, SVG Export Plug-In . SVG Version: 6.00 Build 0)  -->
<svg version="1.1" id="Capa_1" xmlns="http://www.w3.org/2000/svg" xmlns:xlink="http://www.w3.org/1999/xlink" x="0px" y="0px"
	 viewBox="0 0 46.621 46.621" style="enable-background:new 0 0 46.621 46.621;" xml:space="preserve">
<g>
	<path style="fill:#010002;" d="M23.313,46.621c6.537,0,11.855-5.319,11.855-11.856c0-4.319-2.376-8.287-6.207-10.373V0.625
		C28.961,0.28,28.681,0,28.336,0H18.139c-0.345,0-0.625,0.28-0.625,0.625v23.853c-3.74,2.109-6.061,6.043-6.061,10.286
		C11.453,41.302,16.774,46.621,23.313,46.621z M18.427,25.403c0.208-0.107,0.337-0.32,0.337-0.554v-23.6h8.947v23.52
		c0,0.237,0.132,0.451,0.344,0.558c3.617,1.824,5.863,5.44,5.863,9.437c0,5.849-4.758,10.606-10.605,10.606
		c-5.85,0-10.609-4.758-10.609-10.606C12.703,30.838,14.897,27.251,18.427,25.403z"/>
	<path style="fill:#010002;" d="M23.313,42.358c4.187,0,7.594-3.407,7.594-7.594c0-3.402-2.274-6.394-5.543-7.311V4.663
		c0-0.345-0.28-0.625-0.625-0.625h-3.248c-0.345,0-0.625,0.28-0.625,0.625v22.942c-3.084,1.05-5.15,3.916-5.15,7.159
		C15.715,38.952,19.123,42.358,23.313,42.358z M21.655,28.67c0.272-0.074,0.461-0.322,0.461-0.603V5.289h1.998v22.655
		c0,0.295,0.21,0.552,0.498,0.612c2.923,0.609,5.045,3.22,5.045,6.208c0,3.498-2.846,6.344-6.344,6.344
		c-3.5,0-6.348-2.846-6.348-6.344C16.965,31.927,18.893,29.42,21.655,28.67z"/>
</g>
<g>
</g>
<g>
</g>
<g>
</g>
<g>
</g>
<g>
</g>
<g>
</g>
<g>
</g>
<g>
</g>
<g>
</g>
<g>
</g>
<g>
</g>
<g>
</g>
<g>
</g>
<g>
</g>
<g>
</g>
</svg>
